<?xml version="1.0" encoding="utf-8"?>
<svg version="1.1" id="Layer_1" xmlns="http://www.w3.org/2000/svg" x="0px" y="0px" viewBox="0 0 32 32" style="enable-background:new 0 0 121.24 122.88">
  <style type="text/css">.st0{fill-rule:evenodd;clip-rule:evenodd;}</style>
  <g transform="matrix(0.355556, 0, 0, 0.355556, 0, 0)">
    <ellipse style="fill: rgb(206, 181, 255);" cx="45" cy="45" rx="45" ry="45"/>
    <path class="st0" d="M 22.569 63.932 C 20.723 68.355 18.227 72.555 17.513 76.978 L 20.094 76.76 C 24.169 65.064 27.842 57.201 35.807 47.367 C 41.784 40 48.269 34.137 56.586 29.481 C 61.013 26.999 66.684 24.283 71.785 23.598 C 73.179 23.409 74.593 23.355 76.042 23.479 C 60.244 27.048 47.736 35.314 37.744 47.704 C 33.663 52.758 30.116 58.372 26.856 64.29 L 32.863 65.372 L 30.363 64.146 L 39.308 62.741 C 35.988 61.584 32.707 61.971 31.656 60.725 C 40.863 60.313 48.43 58.352 53.743 54.545 C 51.766 54.272 49.487 54.029 48.299 53.468 C 57.2 50.499 62.347 45.162 68.877 40.427 C 60.389 42.184 52.536 41.896 50.262 40.303 C 65.24 41.4 74.915 37.314 78.23 27.013 C 78.517 25.901 78.598 24.78 78.417 23.648 C 77.254 16.286 64.047 13.799 59.751 19.835 C 58.89 21.041 57.678 22.148 56.676 23.548 L 60.767 15.978 C 49.758 19.647 48.853 23.692 43.157 35.879 C 43.61 32.171 44.652 28.81 46.005 25.638 C 32.25 30.876 27.666 44.06 26.932 55.275 C 26.534 51.363 27.269 46.448 28.687 40.928 C 24.672 44.899 21.941 49.561 22.917 56.213 L 21.08 55.404 L 22.046 58.973 L 19.299 57.687 L 22.569 63.932 Z" style="fill: rgb(255, 255, 255);"/>
  </g>
</svg>